<?xml version="1.0" encoding="iso-8859-1"?>
<!-- Uploaded to: SVG Repo, www.svgrepo.com, Generator: SVG Repo Mixer Tools -->
<svg height="800px" width="800px" version="1.1" id="Layer_1" xmlns="http://www.w3.org/2000/svg" xmlns:xlink="http://www.w3.org/1999/xlink" 
	 viewBox="0 0 512 512" xml:space="preserve">
<g>
	<path style="fill:#D0E8FF;" d="M422.176,352.561c-9.908,0-17.965,8.061-17.965,17.965c0,9.904,8.057,17.965,17.965,17.965
		s17.965-8.061,17.965-17.965C440.141,360.622,432.084,352.561,422.176,352.561z"/>
	<path style="fill:#D0E8FF;" d="M89.826,352.561c-9.908,0-17.965,8.061-17.965,17.965c0,9.904,8.057,17.965,17.965,17.965
		s17.965-8.061,17.965-17.965C107.791,360.622,99.734,352.561,89.826,352.561z"/>
	<path style="fill:#D0E8FF;" d="M361.382,212.07c1.706-2.044,4.233-3.228,6.899-3.228s5.193,1.184,6.899,3.228l29.031,34.842
		V145.965h-71.859v100.947L361.382,212.07z"/>
</g>
<path style="fill:#5CB0FF;" d="M422.176,271.719c0,3.781-2.368,7.158-5.925,8.447c-1,0.36-2.031,0.535-3.057,0.535
	c-2.614,0-5.158-1.14-6.899-3.228l-38.013-45.614l-38.013,45.614c-2.417,2.904-6.417,3.974-9.956,2.693
	c-3.557-1.289-5.925-4.667-5.925-8.447V145.965H197.615v71.859v152.701h161.684c0-34.667,28.206-62.877,62.877-62.877
	s62.877,28.21,62.877,62.877h8.982V145.965h-71.859V271.719z"/>
<g>
	<path style="fill:#D0E8FF;" d="M179.65,289.684H67.33c-22.697,0-42.833,18.368-44.881,40.947l-3.627,39.895h8.127
		c0-34.667,28.206-62.877,62.877-62.877s62.877,28.21,62.877,62.877h26.947V289.684z"/>
	<polygon style="fill:#D0E8FF;" points="179.65,226.807 105.585,226.807 92.752,271.719 179.65,271.719 	"/>
</g>
<g>
	<path style="fill:#1C71DA;" d="M503.018,128h-89.824h-89.824H188.633c-4.961,0-8.982,4.018-8.982,8.982v71.859H98.808
		c-4.009,0-7.535,2.658-8.636,6.517l-16.105,56.36H67.33c-31.741,0-59.903,25.693-62.776,57.28l-4.517,49.693
		c-0.228,2.518,0.614,5.009,2.316,6.877c1.702,1.86,4.11,2.921,6.632,2.921h27.693c2.645,0,5.153-1.167,6.86-3.184
		c1.706-2.018,2.439-4.684,2-7.289c-0.412-2.447-0.623-4.974-0.623-7.491c0-24.763,20.149-44.912,44.912-44.912
		s44.912,20.149,44.912,44.912c0,2.518-0.211,5.044-0.623,7.491c-0.439,2.605,0.294,5.272,2,7.289
		c1.706,2.017,4.215,3.184,6.86,3.184h45.658h180.394c2.645,0,5.153-1.167,6.86-3.184s2.439-4.684,2-7.289
		c-0.412-2.447-0.623-4.974-0.623-7.491c0-24.763,20.149-44.912,44.912-44.912c24.763,0,44.912,20.149,44.912,44.912
		c0,2.518-0.211,5.044-0.623,7.491c-0.439,2.605,0.294,5.272,2,7.289c1.706,2.017,4.215,3.184,6.86,3.184h27.693
		c4.961,0,8.982-4.018,8.982-8.982V136.982C512,132.018,507.978,128,503.018,128z M404.211,145.965v100.947L375.18,212.07
		c-1.706-2.044-4.233-3.228-6.899-3.228s-5.193,1.184-6.899,3.228l-29.031,34.842V145.965H404.211z M105.585,226.807h74.066v44.912
		H92.752L105.585,226.807z M89.826,307.648c-34.671,0-62.877,28.21-62.877,62.877h-8.127l3.627-39.895
		c2.048-22.579,22.184-40.947,44.881-40.947h112.32v80.842h-26.947C152.703,335.859,124.497,307.648,89.826,307.648z
		 M494.035,370.525h-8.982c0-34.667-28.206-62.877-62.877-62.877s-62.877,28.21-62.877,62.877H197.615V217.824v-71.859h116.772
		v125.754c0,3.781,2.368,7.158,5.925,8.447c3.54,1.281,7.539,0.211,9.956-2.693l38.013-45.614l38.013,45.614
		c1.741,2.088,4.285,3.228,6.899,3.228c1.026,0,2.057-0.175,3.057-0.535c3.557-1.289,5.925-4.667,5.925-8.447V145.965h71.859
		V370.525z"/>
	<path style="fill:#1C71DA;" d="M422.176,334.596c-19.811,0-35.93,16.114-35.93,35.93c0,19.816,16.118,35.93,35.93,35.93
		s35.93-16.114,35.93-35.93C458.106,350.71,441.987,334.596,422.176,334.596z M422.176,388.49c-9.908,0-17.965-8.061-17.965-17.965
		c0-9.904,8.057-17.965,17.965-17.965s17.965,8.061,17.965,17.965C440.141,380.429,432.084,388.49,422.176,388.49z"/>
	<path style="fill:#1C71DA;" d="M89.826,334.596c-19.811,0-35.93,16.114-35.93,35.93c0,19.816,16.118,35.93,35.93,35.93
		s35.93-16.114,35.93-35.93C125.756,350.71,109.637,334.596,89.826,334.596z M89.826,388.49c-9.908,0-17.965-8.061-17.965-17.965
		c0-9.904,8.057-17.965,17.965-17.965s17.965,8.061,17.965,17.965C107.791,380.429,99.734,388.49,89.826,388.49z"/>
</g>
<g>
	<path style="fill:#FF5D5D;" d="M99.964,89.825c-2.299,0-4.598-0.877-6.352-2.632c-3.508-3.507-3.508-9.195,0-12.702l31.757-31.759
		c3.509-3.509,9.195-3.509,12.704,0c3.508,3.507,3.508,9.195,0,12.702l-31.757,31.759C104.562,88.947,102.264,89.825,99.964,89.825z
		"/>
	<path style="fill:#FF5D5D;" d="M131.722,89.825c-2.299,0-4.598-0.877-6.352-2.632L93.612,55.437c-3.508-3.507-3.508-9.195,0-12.702
		c3.509-3.509,9.195-3.509,12.704,0l31.758,31.756c3.508,3.507,3.508,9.195,0,12.702C136.319,88.947,134.021,89.825,131.722,89.825z
		"/>
</g>
<path style="fill:#00D40B;" d="M248.174,485.051c-17.335,0-31.439-14.103-31.439-31.439c0-17.335,14.103-31.438,31.439-31.438
	s31.439,14.103,31.439,31.438C279.613,470.948,265.51,485.051,248.174,485.051z M248.174,440.139
	c-7.43,0-13.474,6.044-13.474,13.474c0,7.43,6.044,13.474,13.474,13.474c7.43,0,13.474-6.044,13.474-13.474
	C261.648,446.183,255.604,440.139,248.174,440.139z"/>
<path style="fill:#FFC504;" d="M403.826,95.724c-2.298,0-4.598-0.877-6.351-2.632l-25.407-25.406
	c-1.685-1.684-2.632-3.969-2.632-6.351c0-2.381,0.946-4.667,2.632-6.351l25.407-25.406c3.509-3.509,9.196-3.507,12.703,0
	l25.406,25.406c3.508,3.507,3.508,9.195,0,12.702l-25.406,25.406C408.424,94.847,406.124,95.724,403.826,95.724z M391.122,61.336
	l12.704,12.702l12.703-12.702l-12.703-12.702L391.122,61.336z"/>
</svg>