<?xml version="1.0" encoding="iso-8859-1"?>
<!-- Uploaded to: SVG Repo, www.svgrepo.com, Generator: SVG Repo Mixer Tools -->
<svg version="1.1" id="Layer_1" xmlns="http://www.w3.org/2000/svg" xmlns:xlink="http://www.w3.org/1999/xlink" 
	 viewBox="0 0 512 512" xml:space="preserve">
<path style="fill:#FFD652;" d="M273.103,503.983H44.348c-17.711,0-32.068-14.357-32.068-32.068V42.197
	c0-17.711,14.357-32.068,32.068-32.068h228.755c17.711,0,32.068,14.357,32.068,32.068v429.718
	C305.172,489.625,290.815,503.983,273.103,503.983z"/>
<path style="fill:#458FDE;" d="M305.172,42.197c0-17.711-14.357-32.068-32.068-32.068H44.348c-17.711,0-32.068,14.357-32.068,32.068
	v28.862h292.892V42.197z"/>
<rect x="12.28" y="71.053" style="fill:#E5E5E5;" width="292.892" height="349.546"/>
<path style="fill:#458FDE;" d="M12.28,420.605v51.31c0,17.711,14.357,32.068,32.068,32.068h228.755
	c17.711,0,32.068-14.357,32.068-32.068v-51.31H12.28z"/>
<path style="fill:#4F5AA8;" d="M80.692,10.128H44.348c-17.711,0-32.068,14.357-32.068,32.068v28.862h36.344V42.197
	C48.624,24.485,62.982,10.128,80.692,10.128z"/>
<rect x="12.28" y="71.053" style="fill:#CCCCCC;" width="36.344" height="349.546"/>
<g>
	<path style="fill:#4F5AA8;" d="M48.624,471.914v-51.31H12.28v51.31c0,17.711,14.357,32.068,32.068,32.068h36.344
		C62.982,503.983,48.624,489.625,48.624,471.914z"/>
	<rect x="132.005" y="446.265" style="fill:#4F5AA8;" width="51.31" height="34.206"/>
</g>
<path style="fill:#FFD652;" d="M443.066,420.605H141.622c-8.855,0-16.034-7.179-16.034-16.034V218.573
	c0-8.855,7.179-16.034,16.034-16.034h301.444c8.855,0,16.034,7.179,16.034,16.034v185.997
	C459.1,413.426,451.922,420.605,443.066,420.605z"/>
<rect x="174.763" y="322.267" style="fill:#FFFFFF;" width="237.307" height="38.482"/>
<rect x="125.591" y="255.981" style="fill:#5AC779;" width="333.512" height="42.758"/>
<path style="fill:#FB9D46;" d="M159.795,404.571V218.573c0-8.855,7.179-16.034,16.034-16.034h-34.206
	c-8.855,0-16.034,7.179-16.034,16.034v185.997c0,8.855,7.179,16.034,16.034,16.034h34.206
	C166.974,420.605,159.795,413.426,159.795,404.571z"/>
<rect x="125.591" y="255.981" style="fill:#00A085;" width="34.206" height="42.758"/>
<circle style="fill:#FF7452;" cx="360.76" cy="146.948" r="23.517"/>
<path d="M149.105,52.352h17.103c4.429,0,8.017-3.588,8.017-8.017s-3.588-8.017-8.017-8.017h-17.103
	c-4.429,0-8.017,3.588-8.017,8.017S144.678,52.352,149.105,52.352z"/>
<path d="M123.985,446.26v34.206c0,4.429,3.588,8.017,8.017,8.017h51.31c4.429,0,8.017-3.588,8.017-8.017V446.26
	c0-4.429-3.588-8.017-8.017-8.017h-51.31C127.574,438.243,123.985,441.831,123.985,446.26z M140.019,454.277h35.275v18.172h-35.275
	V454.277z"/>
<path d="M443.066,194.522H313.189V42.197c0-22.104-17.982-40.086-40.086-40.086H44.348c-22.104,0-40.086,17.982-40.086,40.086
	v429.718C4.262,494.018,22.244,512,44.348,512h228.755c22.104,0,40.086-17.982,40.086-40.086v-43.292h60.396
	c4.429,0,8.017-3.588,8.017-8.017c0-4.429-3.588-8.017-8.017-8.017H141.622c-4.421,0-8.017-3.596-8.017-8.017v-97.809h317.478
	v97.809c0,4.421-3.596,8.017-8.017,8.017h-28.862c-4.429,0-8.017,3.588-8.017,8.017c0,4.429,3.588,8.017,8.017,8.017h28.862
	c13.261,0,24.051-10.79,24.051-24.051V218.573C467.118,205.311,456.329,194.522,443.066,194.522z M451.083,218.573v29.396H133.605
	v-29.396c0-4.421,3.596-8.017,8.017-8.017h301.444C447.487,210.556,451.083,214.152,451.083,218.573z M44.348,18.145h228.755
	c13.261,0,24.051,10.79,24.051,24.051v20.845H112.761c-4.429,0-8.017,3.588-8.017,8.017s3.588,8.017,8.017,8.017h184.394v115.447
	H141.622c-13.261,0-24.051,10.79-24.051,24.051v185.997c0,2.81,0.49,5.508,1.379,8.017H20.297V79.076h51.844
	c4.429,0,8.017-3.588,8.017-8.017c0-4.429-3.588-8.017-8.017-8.017H20.297V42.197C20.297,28.934,31.087,18.145,44.348,18.145z
	 M297.155,471.914c0,13.261-10.79,24.051-24.051,24.051H44.348c-13.261,0-24.051-10.79-24.051-24.051v-43.292h276.858V471.914z
	 M133.605,290.728v-26.724h317.478v26.724H133.605z"/>
<path d="M411.532,386.398c0-4.429-3.588-8.017-8.017-8.017H300.896c-4.429,0-8.017,3.588-8.017,8.017s3.588,8.017,8.017,8.017
	h102.619C407.944,394.416,411.532,390.826,411.532,386.398z"/>
<path d="M360.757,178.488c17.389,0,31.534-14.145,31.534-31.534s-14.145-31.534-31.534-31.534
	c-17.389,0-31.534,14.145-31.534,31.534S343.37,178.488,360.757,178.488z M360.757,131.454c8.546,0,15.5,6.954,15.5,15.5
	c0,8.546-6.954,15.5-15.5,15.5c-8.546,0-15.5-6.954-15.5-15.5C345.257,138.408,352.211,131.454,360.757,131.454z"/>
<path d="M465.426,43.773C438.171,16.133,401.802,0.587,363.016,0.001C362.975,0,362.933,0,362.893,0
	c-4.372,0-7.949,3.51-8.014,7.896c-0.067,4.428,3.468,8.071,7.895,8.137c71.093,1.074,128.929,59.803,128.929,130.921
	c0,4.429,3.588,8.017,8.017,8.017c4.429,0,8.017-3.588,8.017-8.017C507.738,108.088,492.712,71.445,465.426,43.773z"/>
<path d="M436.118,146.954c0,4.429,3.588,8.017,8.017,8.017c4.429,0,8.017-3.588,8.017-8.017c0-24.002-9.237-46.674-26.006-63.838
	c-16.738-17.131-39.128-26.897-63.048-27.502c-4.432-0.077-8.105,3.386-8.218,7.813c-0.111,4.427,3.386,8.105,7.813,8.218
	C403.866,72.684,436.118,105.763,436.118,146.954z"/>
</svg>